# xmcd
#
# Track frame offsets:
#	150
#	10532
#	21045
#	32620
#	42988
#	54490
#	66273
#	78214
#	89633
#	101523
#	115350
#	128547
#	141324
#	154045
#
# Disc length: 2204 seconds
#
# Revision: 0
# Processed by: cddbd v1.4PL0 Copyright (c) Steve Scherf et al.
# Submitted via: dBpowerAMP V4.0
#
DISCID=ac089a0e
DTITLE=Ray Charles - Cocktail Hour
DYEAR=2001
DGENRE=Blues
TTITLE0=Ain't That Fine
TTITLE1=Hey Now
TTITLE2=What Have I Done?
TTITLE3=Sitting On Top Of The World
TTITLE4=Let's Have A Ball
TTITLE5=How Long Blues
TTITLE6=Can't You See Darling
TTITLE7=She's On The Ball
TTITLE8=If I Give You My Love
TTITLE9=This Love Of Mine
TTITLE10=Baby, Won't You Please Come Home
TTITLE11=You'll Always Miss The Water
TTITLE12=Blues Before Sunrise
TTITLE13=Guitar Blues
EXTD=
EXTT0=
EXTT1=
EXTT2=
EXTT3=
EXTT4=
EXTT5=
EXTT6=
EXTT7=
EXTT8=
EXTT9=
EXTT10=
EXTT11=
EXTT12=
EXTT13=
PLAYORDER=
